# xmcd
#
# Track frame offsets: 
#        150
#        20971
#        39872
#        58953
#        75360
#        88746
#        107616
#        121329
#        145153
#        168219
#        191700
#
# Disc length: 2838 seconds
#
# Revision: 0
# Processed by: cddbd v1.5.2PL0 Copyright (c) Steve Scherf et al.
# Submitted via: ExactAudioCopy v0.99pb5
#
DISCID=8d0b140b
DTITLE=La Excelencia - Mi Tumbal Social
DYEAR=2009
DGENRE=Salsa
TTITLE0=Salsa Dura 
TTITLE1=Ahora Que Te Tengo Agui
TTITLE2=Deja De Critica
TTITLE3=Por Tu Traición
TTITLE4=Aña Pa' mit Tambor
TTITLE5=American Sueño
TTITLE6=Duelo De Bongo
TTITLE7=Caminando
TTITLE8=Vendio Su Corazón
TTITLE9=Unidad
TTITLE10=Por Tu Traición
EXTD=
EXTT0=
EXTT1=
EXTT2=
EXTT3=
EXTT4=
EXTT5=
EXTT6=
EXTT7=
EXTT8=
EXTT9=
EXTT10=
PLAYORDER=
